# xmcd
#
# Track frame offsets:
#	150
#	8864
#	28270
#	38394
#	44019
#	69894
#	89792
#	101042
#	114542
#	132541
#	144072
#	158837
#	177961
#	198914
#	204538
#	218037
#	236106
#	252980
#	276605
#	297417
#	316539
#	336791
#
# Disc length: 4792 seconds
#
# Revision: 0
# Processed by: cddbd v1.5.2PL0 Copyright (c) Steve Scherf et al.
# Submitted via: EasyCDDAExtractor 10.0.6.1
#
DISCID=4a12b616
DTITLE=Various Artist - System Hollywood pres. Siavash
DYEAR=2008
DGENRE=House
TTITLE0=Siavash Ashrafinia - Moving to Hollywood
TTITLE1=Cari Lekebusch - Shaded (Compuphonic and Kolombo RMX)
TTITLE2=The Timewriter - Zero
TTITLE3=Toka Project - Toe 2 Toe
TTITLE4=James Curd - Sea Of Faces
TTITLE5=Dan Berkson, James What feat. Robert Owens - Reflections
TTITLE6=Heckmann, Kauffelt - Sommersause
TTITLE7=Maetrik - Buggin
TTITLE8=Super Flu - Brink
TTITLE9=Karanyi - You Delight (Fine Cut Bodies' DT-Esque Mix)
TTITLE10=Worthy - Work The Ealls (Siavash Is A Dancer RMX)
TTITLE11=Par Grindvik - Do Us Part (Len Faki RMX)
TTITLE12=Sebastien Leger - Jaguar
TTITLE13=Kouroush, Ric-M - Tears (Siavash More And More Bootleg)
TTITLE14=Captain Hollywood Project - More And More (Siavash Edit)
TTITLE15=Mastiksoul - Fix This 2008 Mix
TTITLE16=Heavyfeet feat. Switch MC - Sick Like That (Santiago and Bushido)
TTITLE17=Julien Parise - A5B
TTITLE18=Dariush, DJ Da - Good Vibration (DJ Remy and Roland Klinkenberg)
TTITLE19=Underworld - Beautiful Burnout (Mark Knight RMX)
TTITLE20=Adam Sharpe - Organic
TTITLE21=Orbital - Halcyon and On and On
EXTD=
EXTT0=
EXTT1=
EXTT2=
EXTT3=
EXTT4=
EXTT5=
EXTT6=
EXTT7=
EXTT8=
EXTT9=
EXTT10=
EXTT11=
EXTT12=
EXTT13=
EXTT14=
EXTT15=
EXTT16=
EXTT17=
EXTT18=
EXTT19=
EXTT20=
EXTT21=
PLAYORDER=
